<svg xmlns="http://www.w3.org/2000/svg" viewBox="0 0 168.38 126.28"><defs><style>.cls-1{fill:#281f6b;}.cls-2{fill:#efcc36;}.cls-3{fill:#d11f3d;}</style></defs><g id="Woordmerk"><path class="cls-1" d="M48.86,75.18a10.2,10.2,0,0,1,3.7-.7c2.77,0,4.65,1.58,4.65,4.26,0,2.94-1.76,4.59-4.71,4.59a4.45,4.45,0,0,1-1.34-.17v3.4h-2.3Zm2.3,6a3.66,3.66,0,0,0,1.17.17,2.33,2.33,0,0,0,2.57-2.53,2.16,2.16,0,0,0-2.38-2.28,4,4,0,0,0-1.36.21Z"/><path class="cls-1" d="M61.44,83.14H59.17V75.32a7.28,7.28,0,0,1,3.37-.78,6.14,6.14,0,0,1,1.77.23V77a4.45,4.45,0,0,0-1.71-.28,3.92,3.92,0,0,0-1.16.18Z"/><path class="cls-1" d="M69.66,74.48a4.43,4.43,0,1,1-4.42,4.43A4.27,4.27,0,0,1,69.66,74.48Zm0,2a2.47,2.47,0,1,0,2.13,2.45A2.17,2.17,0,0,0,69.66,76.46Z"/><path class="cls-1" d="M77.77,83.14,74.5,74.67H77l2.16,6.21,2.17-6.21h2.39l-3.25,8.47Z"/><path class="cls-1" d="M84.85,72.11a1.36,1.36,0,0,1,1.36-1.39,1.37,1.37,0,1,1,0,2.74A1.35,1.35,0,0,1,84.85,72.11Zm2.5,11H85.07V74.67h2.28Z"/><path class="cls-1" d="M89.76,75.22a12.45,12.45,0,0,1,4-.74c2.2,0,3.62.82,3.62,3.34v5.32h-2.3V78a1.32,1.32,0,0,0-1.5-1.45,5.4,5.4,0,0,0-1.59.25v6.36H89.76Z"/><path class="cls-1" d="M106.07,77.27a3.26,3.26,0,0,0-2.17-.78,2.25,2.25,0,0,0-2.41,2.4A2.33,2.33,0,0,0,104,81.32a3.45,3.45,0,0,0,2.14-.76v2.15a4.73,4.73,0,0,1-2.47.62,4.16,4.16,0,0,1-4.48-4.4,4.26,4.26,0,0,1,4.47-4.45,4.36,4.36,0,0,1,2.41.63Z"/><path class="cls-1" d="M107.94,72.11a1.37,1.37,0,1,1,1.37,1.35A1.37,1.37,0,0,1,107.94,72.11Zm2.51,11h-2.28V74.67h2.28Z"/><path class="cls-1" d="M114.47,79.53v0A2.34,2.34,0,0,0,117,81.38a5.29,5.29,0,0,0,2.83-.76v1.94a5.45,5.45,0,0,1-3.06.77A4.11,4.11,0,0,1,112.25,79c0-2.79,1.77-4.52,4.14-4.52,2.64,0,3.66,1.75,3.66,4v1.06Zm3.46-1.36c0-1-.51-1.81-1.6-1.81s-1.63.71-1.84,1.81Z"/><path class="cls-1" d="M35,90.86h8.2V93L37.59,100h5.69v2.11H34.85V100L40.32,93H35Z"/><path class="cls-1" d="M52.39,101.9a15.37,15.37,0,0,1-3.49.43c-2.45,0-4-.76-4-3.26v-5.4h2.3v5.21c0,1.08.47,1.57,1.67,1.57a6.87,6.87,0,0,0,1.21-.11V93.67h2.3Z"/><path class="cls-1" d="M54.48,91.11a1.37,1.37,0,1,1,1.37,1.35A1.37,1.37,0,0,1,54.48,91.11Zm2.5,11H54.71V93.67H57Z"/><path class="cls-1" d="M67.14,101.94a14.85,14.85,0,0,1-3.46.39c-2.92,0-4.85-1.55-4.85-4.4a4.2,4.2,0,0,1,4.44-4.45,3.91,3.91,0,0,1,1.59.27V89.23h2.28Zm-2.28-6.18a3.29,3.29,0,0,0-1.4-.27,2.17,2.17,0,0,0-2.32,2.36,2.36,2.36,0,0,0,2.62,2.53,5.74,5.74,0,0,0,1.1-.1Z"/><path class="cls-1" d="M82.78,90.86h2.39v11.28H82.78V97.57H77.63v4.57H75.22V90.86h2.41v4.58h5.15Z"/><path class="cls-1" d="M91.28,93.48a4.43,4.43,0,1,1-4.42,4.43A4.27,4.27,0,0,1,91.28,93.48Zm0,2a2.47,2.47,0,1,0,2.13,2.45A2.17,2.17,0,0,0,91.28,95.46Z"/><path class="cls-1" d="M99.77,102.14H97.49V89.23h2.28Z"/><path class="cls-1" d="M104.42,102.14h-2.28V89.23h2.28Z"/><path class="cls-1" d="M110.85,96.6c0-.82-.68-1.16-1.52-1.16a4.63,4.63,0,0,0-2.45.7v-2a5.89,5.89,0,0,1,2.85-.68c1.94,0,3.38.76,3.38,3V102a15.8,15.8,0,0,1-3.19.35c-2.14,0-3.8-.65-3.8-2.61,0-1.76,1.43-2.6,3.8-2.6h.93Zm0,2h-.76c-1.06,0-1.69.31-1.69,1s.59,1,1.5,1a4.67,4.67,0,0,0,.95-.09Z"/><path class="cls-1" d="M115.21,94.22a12.5,12.5,0,0,1,4.05-.74c2.2,0,3.62.82,3.62,3.34v5.32h-2.29V97a1.32,1.32,0,0,0-1.5-1.45,5.52,5.52,0,0,0-1.6.25v6.36h-2.28Z"/><path class="cls-1" d="M132.92,101.94a14.7,14.7,0,0,1-3.45.39c-2.92,0-4.86-1.55-4.86-4.4a4.2,4.2,0,0,1,4.44-4.45,4,4,0,0,1,1.6.27V89.23h2.27Zm-2.27-6.18a3.34,3.34,0,0,0-1.41-.27,2.17,2.17,0,0,0-2.32,2.36,2.36,2.36,0,0,0,2.62,2.53,5.77,5.77,0,0,0,1.11-.1Z"/><g id="Koppelteken"><polygon class="cls-1" points="68.95 97.92 68.95 100.59 73.3 97.65 73.3 94.98 68.95 97.92"/></g></g><g id="Beeldmerk"><path class="cls-2" d="M109.07,66.38h15.52L121.76,64l2.51-2.28H109.13L108.7,66A.38.38,0,0,0,109.07,66.38Z"/><path class="cls-2" d="M57,64.34H111.4V61.7h-2a.23.23,0,0,1-.15-.41l1.72-1.24a.23.23,0,0,0-.16-.41H57.61a.23.23,0,0,0-.15.41l1.71,1.24a.23.23,0,0,1-.15.41H57Z"/><path class="cls-2" d="M43.8,66.38H59.31a.38.38,0,0,0,.38-.42l-.43-4.26H44.12L46.63,64Z"/><path class="cls-2" d="M84.19,58.43c6.92,0,13.52-3.89,13.52-14.13v-17h-27v17C70.68,54.54,77.28,58.43,84.19,58.43Z"/><path class="cls-2" d="M94,22.44c0,.43.18.82.59.82s.6-.39.6-.82-.18-.7-.6-.7S94,22.08,94,22.44Z"/><path class="cls-2" d="M80.73,23.17c.41,0,.59-.39.59-.82s-.18-.71-.59-.71-.6.35-.6.71S80.31,23.17,80.73,23.17Z"/><path class="cls-2" d="M87.07,22.35c0,.43.18.82.59.82s.59-.39.59-.82-.18-.71-.59-.71S87.07,22,87.07,22.35Z"/><path class="cls-2" d="M98.73,18.72l-1.48.7a1.7,1.7,0,0,0,0,1.4l-.54-.5A1.06,1.06,0,0,0,96,20c-.24,0-.39.14-.52.42l-.24.55.9,1.69-1.49,1.78L93,22.59l1.28-1.78-.1-.61a.53.53,0,0,0-.54-.51,3.25,3.25,0,0,0-1.4.53A2.2,2.2,0,0,0,93,18.44l-1.33-1.81h-.88l-1.32,1.81a2.28,2.28,0,0,0,.75,1.78,4.23,4.23,0,0,0-1.45-.56.57.57,0,0,0-.49.53l-.11.57,1.22,1.77-1.78,1.88-1.75-2,1.41-1.71-.06-.44c-.07-.39-.23-.69-.65-.69a3.49,3.49,0,0,0-1.44.51,2.19,2.19,0,0,0,.73-1.76l-1.26-1.72h-.83l-1.27,1.72a2.19,2.19,0,0,0,.73,1.76,3.44,3.44,0,0,0-1.44-.51c-.42,0-.58.3-.64.69l-.07.44,1.41,1.71-1.75,2L79,22.53l1.22-1.77-.11-.57c-.07-.34-.29-.53-.49-.53a4.17,4.17,0,0,0-1.46.56,2.28,2.28,0,0,0,.75-1.78l-1.32-1.81h-.88l-1.32,1.81a2.22,2.22,0,0,0,.78,1.78,3.25,3.25,0,0,0-1.4-.53.54.54,0,0,0-.54.51l-.09.61,1.27,1.78-1.64,1.82-1.5-1.78.9-1.69-.24-.55c-.13-.28-.28-.42-.52-.42a1.08,1.08,0,0,0-.67.35l-.54.5a1.67,1.67,0,0,0,0-1.4l-1.48-.7-.39.2,2.3,7H96.81l2.3-7Z"/><path class="cls-2" d="M73.78,23.26c.41,0,.59-.39.59-.82s-.18-.7-.59-.7-.6.34-.6.7S73.36,23.26,73.78,23.26Z"/><path class="cls-3" d="M62.61,63l-.73-2h.45l.54,1.53L63.4,61h.45l-.73,2Z"/><path class="cls-3" d="M64.67,63h-.42V61h.42Z"/><path class="cls-3" d="M66.79,61.55a.85.85,0,0,0-.57-.21.59.59,0,0,0-.61.64.6.6,0,0,0,.61.65.53.53,0,0,0,.23,0v-.54h.41v.79a1.45,1.45,0,0,1-.65.14.94.94,0,0,1-1-1,1,1,0,0,1,1-1,1.2,1.2,0,0,1,.59.14Z"/><path class="cls-3" d="M67.89,63h-.42V61h.42Z"/><path class="cls-3" d="M68.55,61H69v1.59h.76V63H68.55Z"/><path class="cls-3" d="M70.69,62.54l-.15.41H70.1l.76-2h.5l.76,2h-.45l-.15-.41Zm.42-1.14-.3.8h.58Z"/><path class="cls-3" d="M73.22,63h-.41V61.36h-.6V61h1.61v.36h-.6Z"/><path class="cls-3" d="M75.55,62.59V63H74.29V61h1.25v.36H74.7v.43h.77v.36H74.7v.44Z"/><path class="cls-3" d="M77.8,61a5,5,0,0,1,.59,0c.71,0,1.12.36,1.12,1a1,1,0,0,1-1.12,1,3.42,3.42,0,0,1-.59,0Zm.42,1.6h.22a.59.59,0,0,0,.64-.67c0-.4-.25-.6-.66-.6h-.2Z"/><path class="cls-3" d="M81.25,62.59V63H80V61h1.25v.36h-.84v.43h.77v.36h-.77v.44Z"/><path class="cls-3" d="M82.64,61a1,1,0,1,1-1,1A1,1,0,0,1,82.64,61Zm0,.37a.64.64,0,1,0,.58.64A.59.59,0,0,0,82.64,61.34Z"/><path class="cls-3" d="M86.93,61.54a.73.73,0,0,0-.53-.2.58.58,0,0,0-.58.64.59.59,0,0,0,.6.63.85.85,0,0,0,.55-.2v.43a1,1,0,0,1-.57.14,1,1,0,0,1-1-1,1,1,0,0,1,1-1,1,1,0,0,1,.53.13Z"/><path class="cls-3" d="M88.42,61a1,1,0,1,1-1,1A1,1,0,0,1,88.42,61Zm0,.37A.64.64,0,1,0,89,62,.58.58,0,0,0,88.42,61.34Z"/><path class="cls-3" d="M91.25,62.31V61h.4v2h-.4l-.9-1.3V63H90V61h.42Z"/><path class="cls-3" d="M92.32,63V61h1.13v.36h-.72v.49h.65v.36h-.65V63Z"/><path class="cls-3" d="M94.41,63H94V61h.42Z"/><path class="cls-3" d="M95.07,61a4.83,4.83,0,0,1,.59,0c.71,0,1.12.36,1.12,1a1,1,0,0,1-1.12,1,3.34,3.34,0,0,1-.59,0Zm.42,1.6h.21a.6.6,0,0,0,.65-.67c0-.4-.26-.6-.66-.6h-.2Z"/><path class="cls-3" d="M98.61,62.59V63H97.34V61h1.25v.36h-.84v.43h.77v.36h-.77v.44Z"/><path class="cls-3" d="M100.52,62.31V61h.4v2h-.4l-.9-1.3V63h-.4V61h.42Z"/><path class="cls-3" d="M102.4,63H102V61.36h-.6V61H103v.36h-.6Z"/><path class="cls-3" d="M104.74,62.59V63h-1.26V61h1.24v.36h-.83v.43h.76v.36h-.76v.44Z"/><path class="cls-3" d="M105.27,62.43a.86.86,0,0,0,.53.2c.17,0,.31-.06.31-.22s-.12-.2-.32-.26c-.39-.11-.55-.28-.55-.61a.58.58,0,0,1,.65-.57.86.86,0,0,1,.51.14v.41a.79.79,0,0,0-.5-.2c-.17,0-.26.08-.26.2s.11.2.34.26c.39.11.54.29.54.62s-.32.58-.72.58a1,1,0,0,1-.53-.14Z"/><path class="cls-3" d="M71.06,55.71a1.69,1.69,0,0,0-1,.39l-.61.45h-.92l-4.78-4.77a5.12,5.12,0,0,0,3-1.06c-3.94-1.74-4.23-5.8-7.34-7.55a4.82,4.82,0,0,0-2.64,1.55.92.92,0,0,1,.45.77,1,1,0,0,1-1.2.95,3.06,3.06,0,0,1-.18-1,2.08,2.08,0,0,1,.95-1.74c1.2-.87,3.32-1.37,4.75-3.41A4.71,4.71,0,0,1,58.75,37a4.73,4.73,0,0,1-2.07.46,5.44,5.44,0,0,1-2.37-.57,12,12,0,0,1-1.58,4.52c-1.5,2.62-3.51,3.58-5.2,3.58s-3-.83-3-2,1-2.15,3.27-2.94c2.88-1,4-1.84,4-3.41A2.25,2.25,0,0,0,51.14,35a2.16,2.16,0,0,0,.28-1,2.43,2.43,0,0,0-.74-1.68l-2.29-2.24a1.71,1.71,0,0,1-1.27.55,1.75,1.75,0,0,1-1.74-1.78,2.27,2.27,0,0,0-.89,3.74l.85.81V35a1.64,1.64,0,0,1,.68-.15,2.17,2.17,0,0,1,1.48.73,2.28,2.28,0,0,0,1.64.72A2.11,2.11,0,0,0,50,36.1a1,1,0,0,1,.27.68c0,.75-1.32,1.43-3.23,2-2.68.82-4.15,2.17-4.15,4.17,0,2.27,1.9,3.57,4.49,3.57A7.2,7.2,0,0,0,49,46.37l.65,3.42H44.31a2.48,2.48,0,0,1,.36,1.27,3.8,3.8,0,0,1-1.45,2.5l4.66,7h3.38a1.38,1.38,0,0,0,1.42-1.09l.34,0,.47-.8a2.06,2.06,0,0,0-2-1.25c-.53,0-1,.77-1.33,1.33-1.47-1.12-2.54-2.32-2.54-3.83a2.41,2.41,0,0,1,2.64-2.52,5.06,5.06,0,0,1,3.05,1.17l3.44-3.25-.64-3.06c2.33.42,4,1.31,4,2.92a2.4,2.4,0,0,1-1.16,2l8.09,6.33h5.8L73,57l-1-.87A1.4,1.4,0,0,0,71.06,55.71Z"/><path class="cls-3" d="M123.72,51.06a2.39,2.39,0,0,1,.36-1.27h-5.32l.66-3.42a7,7,0,0,0,1.58.16c2.6,0,4.5-1.3,4.5-3.57,0-2-1.47-3.35-4.15-4.17-1.92-.58-3.23-1.26-3.23-2a1,1,0,0,1,.27-.68,2.11,2.11,0,0,0,.86.19,2.24,2.24,0,0,0,1.63-.72,2.17,2.17,0,0,1,1.49-.73,1.67,1.67,0,0,1,.68.15v-1.6l.84-.81a2.19,2.19,0,0,0,.66-1.59A2.25,2.25,0,0,0,123,28.84a1.74,1.74,0,0,1-1.74,1.78,1.71,1.71,0,0,1-1.27-.55l-2.28,2.24A2.39,2.39,0,0,0,117,34a2.15,2.15,0,0,0,.27,1,2.29,2.29,0,0,0-.65,1.61c0,1.57,1.15,2.42,4,3.41,2.29.79,3.27,1.6,3.27,2.94s-1.22,2-3,2-3.69-1-5.2-3.58a12.31,12.31,0,0,1-1.58-4.52,5.44,5.44,0,0,1-2.37.57,4.68,4.68,0,0,1-2.06-.46,4.7,4.7,0,0,1-2.8,3.24c1.43,2,3.56,2.54,4.76,3.41a2.1,2.1,0,0,1,1,1.74,3.07,3.07,0,0,1-.19,1,1,1,0,0,1-1.2-.95.92.92,0,0,1,.45-.77A4.82,4.82,0,0,0,109,43.17c-3.1,1.75-3.39,5.81-7.34,7.55a5.14,5.14,0,0,0,3,1.06l-4.77,4.77h-.93l-.6-.45a1.75,1.75,0,0,0-1-.39,1.4,1.4,0,0,0-.95.44l-1,.87.14,1.49h5.8l8.08-6.33a2.43,2.43,0,0,1-1.16-2c0-1.61,1.66-2.5,4-2.92l-.63,3.06L115,53.54a5,5,0,0,1,3-1.17,2.42,2.42,0,0,1,2.65,2.52c0,1.51-1.08,2.71-2.54,3.83-.29-.56-.81-1.33-1.33-1.33a2.07,2.07,0,0,0-2,1.25l.47.8.35,0a1.37,1.37,0,0,0,1.42,1.09h3.37l4.67-7A3.76,3.76,0,0,1,123.72,51.06Z"/><path class="cls-3" d="M101.23,39a7.08,7.08,0,0,0-.54,1.81,6.26,6.26,0,0,1-1,2.5l-.36.54-.49-.31a1.27,1.27,0,0,0-1.21.78,1.6,1.6,0,0,0-.08.78l0,.34v0a1.17,1.17,0,0,0-.77.94,1.9,1.9,0,0,0,0,.35l.3.71.06.14h.67a1.59,1.59,0,0,0,0,.55,1,1,0,0,0,.37.59l.18.14.19.09a1.19,1.19,0,0,0,.45.11,2.46,2.46,0,0,0,1.12-.46.51.51,0,0,0,.48.25h0a.8.8,0,0,0,.55-.25l.17-.16.22-.21a1,1,0,0,0,.33-.72,1.52,1.52,0,0,0-.73-1l.15-.23.93.65c.41-.91-.06-1.7-.06-2.43s.56-1.28,1.66-2.23a5.37,5.37,0,0,0,1.48-1.91,4.5,4.5,0,0,0-.67-2.6A3.68,3.68,0,0,1,101.23,39Z"/><path class="cls-3" d="M91,46c1.47,0,2.66-.78,2.66-2.15,0-1.21-.84-2-2.46-2.51-1.15-.35-2-.74-2-1.25a.55.55,0,0,1,.18-.37,1.39,1.39,0,0,0,.52.11,1.32,1.32,0,0,0,1-.43,1.25,1.25,0,0,1,.87-.42,1.18,1.18,0,0,1,.41.09v-1l.52-.52a1.37,1.37,0,0,0-.54-2.25,1,1,0,0,1-1,1.07,1.09,1.09,0,0,1-.77-.32L89,37.49a1.34,1.34,0,0,0-.41,1,1.13,1.13,0,0,0,.18.58,1.49,1.49,0,0,0-.38,1c0,.94.68,1.39,2.42,2,1.37.47,1.94.89,1.94,1.76S92,45,90.9,45a3.64,3.64,0,0,1-3.13-2.15,6.1,6.1,0,0,1-.94-2.59,3.17,3.17,0,0,1-2.61.1,3.94,3.94,0,0,1-1.75,1.77c.31.7,2,1.57,2.59,1.9a1.4,1.4,0,0,1,.84,1.19,1.2,1.2,0,0,1-.19.64c-.49,0-.71-.27-.71-.55a.59.59,0,0,1,.26-.47A2.67,2.67,0,0,0,84,44.08c-1.83,1-2.56,3.41-4.67,4.4a3,3,0,0,0,1.76.66L78.25,52h-.56l-.36-.27a1.11,1.11,0,0,0-.55-.24.9.9,0,0,0-.53.19l-.68.6-.26.9h3.84L84,49.35a1.36,1.36,0,0,1-.7-1.14c0-.92,1.12-1.62,2.42-1.94l-.4,1.94,2,1.9a3.15,3.15,0,0,1,2-.76,1.41,1.41,0,0,1,1.47,1.51,3.2,3.2,0,0,1-1.44,2.57c-.22-.47-.47-.81-.84-.81s-1,.26-1.14.75l.28.49.21,0a.82.82,0,0,0,.85.66h2l2.77-4.31a2.14,2.14,0,0,1-.85-1.56,1.49,1.49,0,0,1,.21-.76h-3.2L90,45.84A4.44,4.44,0,0,0,91,46Z"/><path class="cls-3" d="M66.87,35.69c0-.92.83-1.57.83-2.62a2,2,0,0,0-1.2-1.95c1.24,0,2.16-.84,2.16-1.37-1.84,0-2.73-2-5-2-1.69,0-1.87.85-3,.85-.92,0-.92-.45-2.23-.44v-.32a2.5,2.5,0,0,1,2.23.31,1,1,0,0,0,.49-.85,1,1,0,0,0-.76-.94,1,1,0,0,0-.6-.91l-.2.78c-1.21.05-1.46.48-2.19.48s-.84-.41-1-1a5,5,0,0,1-.07-.9c0-.11,0-.19,0-.29,0-1.88.59-2.51,1.33-2.51s1,.48,2.1.74l.1.84a1.07,1.07,0,0,0,.78-.66c.92.14,1.34-.15,1.34-1.19v-1l.22-.27V19.33l-1.83-.57-.35.13-.27-.49-2.23-.31-.49.4H53.87c-.52,0-.77.18-.77.47a1.63,1.63,0,0,0,.62,1c-2.23.4-2.94,1.68-2.94,2.63,0,1.53.43,1.51.43,3.36a3.13,3.13,0,0,1-1,2.39L53,31.1a3.51,3.51,0,0,1,1.28,2.46,2.36,2.36,0,0,1-.88,1.76,4.42,4.42,0,0,0,3.32,1.46,4,4,0,0,0,2.58-.93c.22,2.38,1.25,3.2,3.1,4a4.25,4.25,0,0,1,1.4-3.2,3.13,3.13,0,0,0,2.74,1.66,1.81,1.81,0,0,0,1.91-1.18A1.41,1.41,0,0,1,66.87,35.69ZM59.32,19.61a.4.4,0,0,1-.4.23.86.86,0,0,1-.8.46,1.07,1.07,0,0,1-.89-.51A2.87,2.87,0,0,1,59.32,19.61Z"/><path class="cls-3" d="M69.76,23.08l0-.52v-.15a1,1,0,0,0-.43-.91.7.7,0,0,0-.35-.09h-.21a.56.56,0,0,0-.29-.59.93.93,0,0,0-.48-.15,1.21,1.21,0,0,0-1.19.74c-.4,0-.85.51-.85,1.32,0,1,1.32,1.31.88,2.07l-1.55,2.72c1.43.46,1.82,1.17,3,1.5l.86-3.44c.21-.84,1.27-.93,1.28-1.74a.81.81,0,0,0-.12-.42.67.67,0,0,0-.06-.12Z"/><path class="cls-3" d="M81,40.85a2.14,2.14,0,0,1-2.39.45l-1.12,2.31-.33-.27a.73.73,0,0,0-.81.74v.19a.7.7,0,0,0-.49.45,1,1,0,0,0,0,.18l.09.36,0,.12.36,0a.55.55,0,0,0,.06.56h0l.36.38h0a.6.6,0,0,0,.74-.24c.11.22.24.25.37.2h0l.47-.22,0,0a.65.65,0,0,0,.11-.34.89.89,0,0,0-.33-.55l.1-.11.26.24c.25-.42,0-1,.33-1.24L81.4,42A3.15,3.15,0,0,0,81,40.85Z"/><path class="cls-3" d="M76.12,34.11l-.09.12-.1.14a.49.49,0,0,0,0,.34.6.6,0,0,0,.32.24c.22.08.5.1.71.18a.63.63,0,0,1,.23.16l1.08,1.46a2.55,2.55,0,0,1,1.25-1.86l-1.2-.41a.61.61,0,0,1-.4-.73,1,1,0,0,0,0-.91.84.84,0,0,0-.46-.41.44.44,0,0,0-.34,0,.6.6,0,0,0-.48-.2.87.87,0,0,0-.38.08.64.64,0,0,0-.25.24.35.35,0,0,0,0,.33l-.19.1a.2.2,0,0,0,0,.08.65.65,0,0,0,0,.65.05.05,0,0,1,0,0Z"/><path class="cls-3" d="M71.62,46.4a1.18,1.18,0,0,0-.78-.94v0l0-.34a1.6,1.6,0,0,0-.07-.78,1.28,1.28,0,0,0-1.22-.78l-.49.31-.35-.54a6.16,6.16,0,0,1-1.06-2.5A7.08,7.08,0,0,0,67.16,39a3.7,3.7,0,0,1-3.43-1.26,4.5,4.5,0,0,0-.66,2.6,5.26,5.26,0,0,0,1.48,1.91c1.1,1,1.65,1.49,1.65,2.23s-.46,1.52,0,2.43l.92-.65.15.23a1.53,1.53,0,0,0-.72,1,1,1,0,0,0,.32.72l.23.21.16.16a.8.8,0,0,0,.56.25h0a.5.5,0,0,0,.47-.25,2.49,2.49,0,0,0,1.13.46,1.69,1.69,0,0,0,.63-.2l.19-.14a1.08,1.08,0,0,0,.37-.59,1.87,1.87,0,0,0,.05-.55h.67l.06-.14.29-.71A1.94,1.94,0,0,0,71.62,46.4Z"/><path class="cls-3" d="M89.29,35a1.92,1.92,0,0,1-.63-1.54c0-.67.28-1.28.28-2s-.43-1.26-1.77-1.5a1,1,0,0,0,.38-.61c0-.19-.16-.26-.49-.26H85.19l-.29-.24L83.56,29l-.16.29-.22-.08-1.1.35v.7l.13.16V31c0,.59.26.8.81.71.11.22.28.4.47.4l.07-.51c.36-.07,1-.44,1.25-.44.46,0,.79.34.81,1.61v.1a1.59,1.59,0,0,1-.09.57A.56.56,0,0,1,85,34c-.55,0-.66-.29-1.31-.29l-.12-.47a.59.59,0,0,0-.36.55.58.58,0,0,0-.46.54.67.67,0,0,0,.35.58,2.08,2.08,0,0,1,1.73-.08v.4a5.69,5.69,0,0,0-1.69.12c-.61,0-.93-.29-1.86-.29a2.21,2.21,0,0,0-2.38,2c0,.87.4,1.1.4,2.16a1,1,0,0,1-1,1,1.31,1.31,0,0,0,1.19.77,2,2,0,0,0,1.63-1,3.32,3.32,0,0,1,.86,1.83,3,3,0,0,0,1.94-2.21,2.47,2.47,0,0,0,1.51.52,3.16,3.16,0,0,0,2-.85,1,1,0,0,1-.56-1,2.23,2.23,0,0,1,.8-1.57ZM84.53,30.2a.45.45,0,0,1-.49-.32.25.25,0,0,1-.24-.13,1.8,1.8,0,0,1,1.26.1A.62.62,0,0,1,84.53,30.2Z"/><path class="cls-3" d="M118.19,28.32a3.11,3.11,0,0,1-1-2.39c0-1.85.43-1.83.43-3.36,0-.95-.71-2.23-2.94-2.63a1.63,1.63,0,0,0,.62-1c0-.29-.24-.47-.77-.47h-3.13l-.49-.4-2.24.31-.26.49-.36-.13-1.83.57V20.5l.22.27v1c0,1,.42,1.33,1.34,1.19a1.07,1.07,0,0,0,.78.66l.11-.84c1.11-.26,1.42-.74,2.1-.74s1.27.63,1.32,2.52a2.53,2.53,0,0,1,0,.28,4.91,4.91,0,0,1-.07.9c-.11.61-.37,1-1,1-.73,0-1-.43-2.18-.48l-.21-.78a.94.94,0,0,0-.59.91,1,1,0,0,0-.76.94,1,1,0,0,0,.49.85,2.5,2.5,0,0,1,2.23-.31v.32c-1.32,0-1.31.44-2.23.44-1.16,0-1.34-.85-3-.85-2.32,0-3.21,2-5,2,0,.53.91,1.35,2.15,1.37a2,2,0,0,0-1.2,1.95c0,1,.84,1.7.84,2.62A1.42,1.42,0,0,1,100,37.14a1.84,1.84,0,0,0,1.92,1.18,3.14,3.14,0,0,0,2.74-1.66,4.28,4.28,0,0,1,1.4,3.2c1.84-.81,2.88-1.63,3.1-4a3.92,3.92,0,0,0,2.58.93A4.4,4.4,0,0,0,115,35.32a2.35,2.35,0,0,1-.87-1.76,3.52,3.52,0,0,1,1.27-2.46Zm-7.93-8a.89.89,0,0,1-.8-.46.41.41,0,0,1-.4-.23,2.9,2.9,0,0,1,2.1.18A1.08,1.08,0,0,1,110.26,20.3Z"/><path class="cls-3" d="M101.49,24.8c-.44-.76.88-1.05.88-2.07,0-.81-.45-1.32-.85-1.32a1.21,1.21,0,0,0-1.18-.74.87.87,0,0,0-.49.16.55.55,0,0,0-.29.58h-.21a.75.75,0,0,0-.34.09.94.94,0,0,0-.43.91v.15l0,.52-.48.22s0,.08-.07.12a1,1,0,0,0-.12.42c0,.81,1.08.9,1.28,1.74l.86,3.44c1.14-.33,1.53-1,3-1.5Z"/><path class="cls-1" d="M96.77,46.4a1.77,1.77,0,0,0-.91,1.37l.18.13a5.39,5.39,0,0,1,1-.44l-.3-.71A1.9,1.9,0,0,1,96.77,46.4Z"/><path class="cls-1" d="M100.62,48.88h0a2.94,2.94,0,0,1,.25.55l.22-.05a1.72,1.72,0,0,0,.26-.9l-.17.16A.8.8,0,0,1,100.62,48.88Z"/><path class="cls-1" d="M97.58,44.32a1.67,1.67,0,0,0-1.41,1l.09.13a5.6,5.6,0,0,1,1.28-.05l0-.34A1.6,1.6,0,0,1,97.58,44.32Z"/><path class="cls-1" d="M98.19,48.74a1,1,0,0,1-.37-.59,1.54,1.54,0,0,0,0,1.63l.22,0a3.37,3.37,0,0,1,.56-.85l-.19-.09Z"/><path class="cls-1" d="M56.37,25.73a3.74,3.74,0,0,1,2.46-1.05c1.94,0,2.52.76,4,.76S65,24.81,65,23.68a1.34,1.34,0,0,0-1.42-1.5c-.59,0-1.28.26-1.28,1a.86.86,0,0,0,.82.92c.25,0,.25-.18.45-.18a.19.19,0,0,1,.2.22c0,.2-.26.58-1,.58-1.08,0-2.17-.9-3.84-.9a4.77,4.77,0,0,0-2.62.68c0,.1,0,.18,0,.29A5,5,0,0,0,56.37,25.73Z"/><path class="cls-1" d="M70.55,22.36a1.59,1.59,0,0,0-.75.2l0,.52.49.22a.67.67,0,0,1,.06.12,2.81,2.81,0,0,1,.76-.74v-.23A2,2,0,0,0,70.55,22.36Z"/><path class="cls-1" d="M68.82,21.41H69a.7.7,0,0,1,.35.09c.22-.18.48-.37.68-.51v-.18a1.48,1.48,0,0,0-.75-.17,2,2,0,0,0-.78.18A.56.56,0,0,1,68.82,21.41Z"/><path class="cls-1" d="M77.21,32.45a.44.44,0,0,1,.34,0,1,1,0,0,0-.93-.48l0,.08a2.1,2.1,0,0,1,.15.22A.6.6,0,0,1,77.21,32.45Z"/><path class="cls-1" d="M76,34.23l.09-.12-.22-.34a.05.05,0,0,0,0,0,.89.89,0,0,0-.49.33l0,.11A1.78,1.78,0,0,1,76,34.23Z"/><path class="cls-1" d="M76,35.12l0,.12a1,1,0,0,0,1-.11c-.21-.08-.49-.1-.71-.18A1.81,1.81,0,0,1,76,35.12Z"/><path class="cls-1" d="M76.11,32.9a.35.35,0,0,1,0-.33,1,1,0,0,0-.72.14v.12a3.33,3.33,0,0,1,.5.25.2.2,0,0,1,0-.08Z"/><path class="cls-1" d="M77.88,46.35a1.38,1.38,0,0,1,.13.47h.13a1,1,0,0,0,.25-.7l-.47.22Z"/><path class="cls-1" d="M76.37,46.65l.11,0a2,2,0,0,1,.28-.31L76.4,46A.92.92,0,0,0,76.37,46.65Z"/><path class="cls-1" d="M75.89,44.72a1,1,0,0,0-.43.55l.08.09.4-.1-.09-.36A1,1,0,0,1,75.89,44.72Z"/><path class="cls-1" d="M76.55,43.6a.89.89,0,0,0-.67.41l0,.08a2.69,2.69,0,0,1,.47,0v-.06A.71.71,0,0,1,76.55,43.6Z"/><path class="cls-1" d="M70.88,45.1l0,.34a5.58,5.58,0,0,1,1.28.05l.09-.13a1.66,1.66,0,0,0-1.4-1A1.6,1.6,0,0,1,70.88,45.1Z"/><path class="cls-1" d="M67.21,48.63l-.16-.16a1.71,1.71,0,0,0,.25.9l.23.05a2.42,2.42,0,0,1,.25-.55h0A.8.8,0,0,1,67.21,48.63Z"/><path class="cls-1" d="M70,48.88a1.14,1.14,0,0,1-.19.09,3.12,3.12,0,0,1,.56.85l.23,0a1.56,1.56,0,0,0,0-1.63,1.08,1.08,0,0,1-.37.59Z"/><path class="cls-1" d="M72.53,47.77a1.82,1.82,0,0,0-.91-1.37,1.94,1.94,0,0,1,0,.35l-.29.71a6,6,0,0,1,1,.44Z"/><path class="cls-1" d="M85.62,32.81a3,3,0,0,0-1.57-.4c-1,0-1.67.55-2.32.55-.45,0-.61-.23-.61-.36a.12.12,0,0,1,.12-.13c.12,0,.12.11.28.11A.51.51,0,0,0,82,32c0-.47-.42-.63-.77-.63a.83.83,0,0,0-.86.9c0,.71.62,1.07,1.29,1.07,1.09,0,1.27-.46,2.44-.46a2.19,2.19,0,0,1,1.42.57,1.59,1.59,0,0,0,.09-.57Z"/><path class="cls-1" d="M112.07,24.55a4.76,4.76,0,0,0-2.61-.69c-1.67,0-2.77.91-3.85.91-.75,0-1-.38-1-.59a.19.19,0,0,1,.2-.21c.2,0,.2.18.46.18a.86.86,0,0,0,.82-.92c0-.78-.7-1-1.28-1a1.34,1.34,0,0,0-1.43,1.49c0,1.13.8,1.77,2.16,1.77s2.09-.76,4-.76a3.76,3.76,0,0,1,2.46,1,4.91,4.91,0,0,0,.07-.9A2.53,2.53,0,0,0,112.07,24.55Z"/><path class="cls-1" d="M99.56,21.41a.55.55,0,0,1,.29-.58,1.94,1.94,0,0,0-.77-.19,1.5,1.5,0,0,0-.76.18V21c.21.14.46.32.69.5a.75.75,0,0,1,.34-.09Z"/><path class="cls-1" d="M98.62,23.08l0-.52a1.78,1.78,0,0,0-.76-.19,1.86,1.86,0,0,0-.51.09v.22a3.1,3.1,0,0,1,.75.74s0-.08.07-.12Z"/><path class="cls-1" d="M94.49,58.56l-.12-.1c.06-.93.62-1.34,1.12-1.34l.25,1.15A2.16,2.16,0,0,0,94.49,58.56Z"/><path class="cls-1" d="M96.43,58.4a3.76,3.76,0,0,1,1.3-.09,1.3,1.3,0,0,1-.23-.76,1.73,1.73,0,0,1,0-.32,1.36,1.36,0,0,0-1.19,1Z"/><path class="cls-1" d="M100.17,58.57h-.8l-.05-.1a.94.94,0,0,1,.8-.62.59.59,0,0,1,.18.4A.47.47,0,0,1,100.17,58.57Z"/><path class="cls-1" d="M114.87,59.8l-.12-.11c0-.91.56-1.46,1.21-1.46l0,1.26A1.85,1.85,0,0,0,114.87,59.8Z"/><path class="cls-1" d="M116,60.36l-.08-.16a1.33,1.33,0,0,1,1.23-1,1,1,0,0,0-.11.42,1.18,1.18,0,0,0,.22.65A3.2,3.2,0,0,0,116,60.36Z"/><path class="cls-1" d="M119.65,60.61h-.8l0-.1a.94.94,0,0,1,.8-.62.59.59,0,0,1,.18.4A.47.47,0,0,1,119.65,60.61Z"/><path class="cls-1" d="M89.75,54.57l0-.07a.57.57,0,0,1,.48-.37.36.36,0,0,1,.11.25.26.26,0,0,1-.08.19Z"/><path class="cls-1" d="M88,54.41a2.09,2.09,0,0,1,.76,0,.64.64,0,0,1-.09-.65.83.83,0,0,0-.72.61Z"/><path class="cls-1" d="M87.35,54.08,87.28,54c.07-.9.6-.89.83-.85l-.08.71A1.29,1.29,0,0,0,87.35,54.08Z"/><path class="cls-1" d="M78,53.2l0-.07a.56.56,0,0,1,.48-.37.31.31,0,0,1,0,.44Z"/><path class="cls-1" d="M76.2,53.09A2.86,2.86,0,0,1,77,53a.57.57,0,0,1-.16-.33.51.51,0,0,1,.13-.32.82.82,0,0,0-.77.61Z"/><path class="cls-1" d="M75,53.19,75,53.13c.07-.64.4-.8.7-.8l.09.69A1.24,1.24,0,0,0,75,53.19Z"/><path class="cls-1" d="M73.9,58.55a2.22,2.22,0,0,0-1.26-.29l.26-1.15c.49,0,1.06.41,1.11,1.34Z"/><path class="cls-1" d="M72,58.39l.08-.15a1.35,1.35,0,0,0-1.18-1c0,.09,0,.24,0,.33a1.22,1.22,0,0,1-.24.75A3.83,3.83,0,0,1,72,58.39Z"/><path class="cls-1" d="M68.22,58.56a.45.45,0,0,1-.13-.31.59.59,0,0,1,.18-.41,1,1,0,0,1,.8.62l0,.1Z"/><path class="cls-1" d="M53.51,59.79a1.91,1.91,0,0,0-1.13-.31l0-1.25c.64,0,1.15.54,1.21,1.46Z"/><path class="cls-1" d="M52.37,60.35a3.34,3.34,0,0,0-1.25-.09,1.12,1.12,0,0,0,.21-.65,1,1,0,0,0-.11-.42,1.36,1.36,0,0,1,1.24,1Z"/><path class="cls-1" d="M48.73,60.6a.43.43,0,0,1-.13-.31.59.59,0,0,1,.18-.41.94.94,0,0,1,.8.62l0,.1Z"/></g></svg>