<svg width="127" height="135" xmlns="http://www.w3.org/2000/svg" xmlns:xlink="http://www.w3.org/1999/xlink" overflow="hidden"><defs><clipPath id="clip0"><rect x="277" y="22" width="127" height="135"/></clipPath><clipPath id="clip1"><rect x="277" y="23" width="126" height="134"/></clipPath><clipPath id="clip2"><rect x="277" y="23" width="126" height="134"/></clipPath><clipPath id="clip3"><rect x="277" y="23" width="564" height="134"/></clipPath></defs><g clip-path="url(#clip0)" transform="translate(-277 -22)"><g clip-path="url(#clip1)"><g clip-path="url(#clip2)"><g clip-path="url(#clip3)"><path d="M26.8 67C26.8 89.2018 44.7982 107.2 67 107.2 89.2018 107.2 107.2 89.2018 107.2 67 107.2 44.7982 89.2018 26.8 67 26.8 44.7982 26.8 26.8 44.7982 26.8 67ZM61 32 61.4 32C57 36.3 55 42.45 67.5 39.75 81 36.9 94.6 36.5 86.4 46 82.8 50.2 87.65 48.75 91 49.15 92.3 49.3 98.6 49.85 96.9 52.75 83.75 51.45 58.6 64.25 51.95 78.75L51.35 78.2C52.05 73.85 56.45 64.2 64.4 57.8 73.75 50.35 77.15 44.5 65.2 46.35 44.25 49.55 53.9 36 61 32ZM82.8 62.2C99.9 56.15 101 62.7 97 65.55 93.2 68.25 84.3 73.3 91.5 73.35 97.35 73.35 99.75 78.2 89.6 88.5 83.5507 94.6722 75.2417 98.1042 66.6 98 64.0763 97.9947 61.5609 97.7096 59.1 97.15L59.1 96.7C80.45 98.45 87.25 83.7 73.75 82.7 62.9 81.85 63.45 69.05 82.75 62.2ZM125.1 66.9C125.1 75.25 129.6 80.9 137.95 80.9 143.45 80.9 147.95 78.75 149.7 72.6L144.55 71.3C143.977 74.3386 141.237 76.4793 138.15 76.3 134.1 76.3 131.4 73.7 131 68.15L149.7 68.15C150.2 57.8 145.35 53.05 137.95 53.05 130.35 53.05 125.1 58.05 125.1 66.85ZM137.75 57.5C141.45 57.5 143.6 59.8 143.7 64.4L131.1 64.4C131.65 59.65 134.1 57.5 137.75 57.5ZM155.3 80.4 161.3 80.4 161.3 62.2C162.404 59.7228 164.839 58.1059 167.55 58.05 170.5 58.05 172.5 59.85 172.5 63.4L172.5 80.4 178.5 80.4 178.5 63.05C178.5 56.75 175.05 53.1 169.65 53.1 166.092 52.9938 162.78 54.9112 161.1 58.05L161.1 53.6 155.3 53.6ZM183.8 67C183.8 75.7 187.8 81 194.75 81 197.906 80.9771 200.876 79.5016 202.8 77L202.8 80.4 208.8 80.4 208.8 53.6 202.8 53.6 202.8 57.05C200.872 54.5588 197.9 53.1003 194.75 53.1 188 53.1 183.8 58.1 183.8 66.95ZM189.8 67C189.8 61.5 192.25 58 196.5 58 199.139 57.9624 201.575 59.4123 202.8 61.75L202.8 72.3C201.618 74.6244 199.207 76.0636 196.6 76 192.45 76 189.8 72.6 189.8 67ZM215.8 80.4 221.8 80.4 221.8 77.05C223.761 79.4598 226.693 80.8709 229.8 80.9 236.7 80.9 240.8 75.65 240.8 66.9 240.8 58.15 236.6 53.05 229.8 53.05 226.668 53.0657 223.717 54.5227 221.8 57L221.8 43.4 215.8 43.4ZM234.8 67C234.8 72.55 232.15 76 228 76 225.44 76.0903 223.045 74.7384 221.8 72.5L221.8 61.8C223.025 59.4623 225.461 58.0124 228.1 58.05 232.35 58.05 234.8 61.5 234.8 67.05ZM246.4 80.4 252.4 80.4 252.4 43.4 246.4 43.4ZM259.4 80.4 265.4 80.4 265.4 53.6 259.4 53.6ZM258.6 46.7C258.6 48.7987 260.301 50.5 262.4 50.5 264.499 50.5 266.2 48.7987 266.2 46.7 266.2 44.6013 264.499 42.9 262.4 42.9 260.301 42.9 258.6 44.6013 258.6 46.7ZM272.4 80.4 278.4 80.4 278.4 62.2C279.504 59.7228 281.939 58.1059 284.65 58.05 287.65 58.05 289.65 59.85 289.65 63.4L289.65 80.4 295.65 80.4 295.65 63.05C295.65 56.75 292.2 53.1 286.8 53.1 283.242 52.9938 279.93 54.9112 278.25 58.05L278.25 53.6 272.45 53.6ZM300.9 65.8C300.9 73.4 305 78.45 311.25 78.45 314.543 78.4732 317.633 76.8626 319.5 74.15L319.5 78.35C319.5 82.45 317.3 84.8 313 84.8 309.65 84.8 306.75 83.4 305.95 79.9L301 81.55C302.45 86.35 306.5 88.9 312.95 88.9 320.85 88.9 325.5 84.5 325.5 78.25L325.5 53.6 319.5 53.6 319.5 57.45C317.646 54.7424 314.582 53.1167 311.3 53.1 305.05 53.1 300.9 58.1 300.9 65.8ZM306.9 65.8C306.9 61 309.1 58 313 58 315.731 58.0594 318.216 59.5891 319.5 62L319.5 69.6C318.244 72.0371 315.741 73.5775 313 73.6 309.2 73.6 306.9 70.8 306.9 65.9ZM339.1 67C339.1 75.7 343.1 81 350.05 81 353.206 80.9771 356.176 79.5016 358.1 77L358.1 80.4 364.1 80.4 364.1 43.4 358.1 43.4 358.1 57.05C356.172 54.5588 353.2 53.1003 350.05 53.1 343.3 53.1 339.1 58.1 339.1 66.95ZM345.1 67C345.1 61.5 347.55 58 351.8 58 354.439 57.9624 356.875 59.4123 358.1 61.75L358.1 72.3C356.918 74.6244 354.507 76.0636 351.9 76 347.75 76 345.1 72.6 345.1 67ZM369.7 66.9C369.7 75.25 374.2 80.9 382.55 80.9 388.05 80.9 392.5 78.75 394.3 72.6L389.15 71.3C388.577 74.3386 385.837 76.4793 382.75 76.3 378.7 76.3 376 73.7 375.6 68.15L394.3 68.15C394.8 57.8 389.95 53.05 382.55 53.05 374.95 53.05 369.7 58.05 369.7 66.85ZM382.35 57.5C386.05 57.5 388.2 59.8 388.3 64.4L375.7 64.4C376.25 59.65 378.7 57.5 382.35 57.5ZM399.9 80.4 405.9 80.4 405.9 43.4 399.9 43.4ZM410.05 58.3 414.2 58.3 414.2 71.85C414.2 78.5 417.2 80.9 423.3 80.9 424.683 80.8853 426.053 80.6316 427.35 80.15L426.2 75.7C425.487 76.2162 424.63 76.496 423.75 76.5 421.35 76.5 420.2 75.5 420.2 71.65L420.2 58.3 426.45 58.3 426.45 53.6 420.2 53.6 420.2 43.4 414.4 43.4 414.4 53.6 410.05 53.6ZM430.3 67C430.3 75.7 434.35 81 441.25 81 444.406 80.9771 447.376 79.5016 449.3 77L449.3 80.4 455.3 80.4 455.3 53.6 449.3 53.6 449.3 57.05C447.372 54.5588 444.4 53.1003 441.25 53.1 434.5 53.1 430.3 58.1 430.3 66.95ZM436.3 67C436.3 61.5 438.75 58 443 58 445.639 57.9624 448.075 59.4123 449.3 61.75L449.3 72.3C448.118 74.6244 445.707 76.0636 443.1 76 438.95 76 436.3 72.6 436.3 67ZM470.3 80.4 476.3 80.4 476.3 43.4 470.3 43.4ZM483.3 80.4 489.3 80.4 489.3 53.6 483.3 53.6ZM482.5 46.7C482.5 48.7987 484.201 50.5 486.3 50.5 488.399 50.5 490.1 48.7987 490.1 46.7 490.1 44.6013 488.399 42.9 486.3 42.9 484.201 42.9 482.5 44.6013 482.5 46.7ZM497.5 80.4 503.5 80.4 503.5 58.3 509.6 58.3 509.6 53.6 503.5 53.6 503.5 52.5C503.5 49 504.8 47.2 508 47.2 508.821 47.1946 509.636 47.3474 510.4 47.65L511.1 43.4C509.971 43.1271 508.812 42.9928 507.65 43 501.35 43 497.55 46 497.55 52.5L497.55 53.6 493.45 53.6 493.45 58.3 497.5 58.3ZM511.4 66.9C511.4 75.25 515.9 80.9 524.25 80.9 529.75 80.9 534.25 78.75 536 72.6L530.85 71.3C530.277 74.3386 527.537 76.4793 524.45 76.3 520.4 76.3 517.7 73.7 517.3 68.15L536 68.15C536.5 57.8 531.65 53.05 524.25 53.05 516.65 53.05 511.4 58.05 511.4 66.85ZM524.05 57.5C527.75 57.5 529.9 59.8 530.05 64.4L517.4 64.4C518 59.65 520.4 57.5 524.05 57.5Z" fill="#0A28A3" transform="matrix(1.00076 0 0 1 277.1 23)"/></g></g></g></g></svg>